HIERARCHY
ROOT RootJoint
{
    OFFSET   0.000000   0.000000   0.000000
    CHANNELS 6 Xposition Yposition Zposition Xrotation Yrotation Zrotation
    JOINT pelvis_lowerback
    {
        OFFSET   0.000000   0.093605   0.000000
        CHANNELS 3 Xrotation Yrotation Zrotation
        JOINT lowerback_torso
        {
            OFFSET   0.000000   0.100000   0.000000
            CHANNELS 3 Xrotation Yrotation Zrotation
            JOINT torso_head
            {
                OFFSET   0.000000   0.282350   0.000000
                CHANNELS 3 Xrotation Yrotation Zrotation
                End Site
                {
                    OFFSET   0.000000   0.192650   0.000000
                }
            }
            JOINT rTorso_Clavicle
            {
                OFFSET  -0.001000   0.157500   0.000000
                CHANNELS 3 Xrotation Yrotation Zrotation
                JOINT rShoulder
                {
                    OFFSET  -0.117647   0.000000   0.000000
                    CHANNELS 3 Xrotation Yrotation Zrotation
                    JOINT rElbow
                    {
                        OFFSET  -0.245000   0.000000   0.000000
                        CHANNELS 3 Xrotation Yrotation Zrotation
                        JOINT rWrist
                        {
                            OFFSET  -0.240000   0.000000   0.000000
                            CHANNELS 3 Xrotation Yrotation Zrotation
                            End Site
                            {
                                OFFSET  -0.116353  -0.002500   0.000000
                            }
                        }
                    }
                }
            }
            JOINT lTorso_Clavicle
            {
                OFFSET   0.001000   0.157500   0.000000
                CHANNELS 3 Xrotation Yrotation Zrotation
                JOINT lShoulder
                {
                    OFFSET   0.117647   0.000000   0.000000
                    CHANNELS 3 Xrotation Yrotation Zrotation
                    JOINT lElbow
                    {
                        OFFSET   0.245000   0.000000   0.000000
                        CHANNELS 3 Xrotation Yrotation Zrotation
                        JOINT lWrist
                        {
                            OFFSET   0.240000   0.000000   0.000000
                            CHANNELS 3 Xrotation Yrotation Zrotation
                            End Site
                            {
                                OFFSET   0.116353  -0.002500   0.000000
                            }
                        }
                    }
                }
            }
        }
    }
    JOINT rHip
    {
        OFFSET  -0.100000  -0.051395   0.000000
        CHANNELS 3 Xrotation Yrotation Zrotation
        JOINT rKnee
        {
            OFFSET   0.000000  -0.410000   0.000000
            CHANNELS 3 Xrotation Yrotation Zrotation
            JOINT rAnkle
            {
                OFFSET   0.000000  -0.390000   0.000000
                CHANNELS 3 Xrotation Yrotation Zrotation
                JOINT rToeJoint
                {
                    OFFSET   0.000000  -0.050000   0.130000
                    CHANNELS 3 Xrotation Yrotation Zrotation
                    End Site
                    {
                        OFFSET  -0.010000   0.002000   0.060000
                    }
                }
            }
        }
    }
    JOINT lHip
    {
        OFFSET   0.100000  -0.051395   0.000000
        CHANNELS 3 Xrotation Yrotation Zrotation
        JOINT lKnee
        {
            OFFSET   0.000000  -0.410000   0.000000
            CHANNELS 3 Xrotation Yrotation Zrotation
            JOINT lAnkle
            {
                OFFSET   0.000000  -0.390000   0.000000
                CHANNELS 3 Xrotation Yrotation Zrotation
                JOINT lToeJoint
                {
                    OFFSET   0.000000  -0.050000   0.130000
                    CHANNELS 3 Xrotation Yrotation Zrotation
                    End Site
                    {
                        OFFSET   0.010000   0.002000   0.060000
                    }
                }
            }
        }
    }
}
MOTION
Frames: 8
Frame Time:   0.008333
 -2.376719   0.925631   3.975860   0.000000   0.000000   0.000000   0.000000   0.000000   0.000000   0.000000   0.000000   0.000000   0.000000   0.000000   0.000000   0.000000   0.000000   0.000000   0.000000   0.000000   0.000000   0.000000   0.000000   0.000000   0.000000   0.000000   0.000000   0.000000   0.000000   0.000000   0.000000   0.000000   0.000000   0.000000   0.000000   0.000000   0.000000   0.000000   0.000000   0.000000   0.000000   0.000000   0.000000   0.000000   0.000000   0.000000   0.000000   0.000000   0.000000   0.000000   0.000000   0.000000   0.000000   0.000000   0.000000   0.000000   0.000000   0.000000   0.000000   0.000000   0.000000   0.000000   0.000000
 -2.376856   0.925967   3.975642  -1.667033  -0.056134  -0.170050   2.205556   0.132711   0.243369   0.129437  -0.270804  -0.054008  -0.281054   0.016929   0.166508  -0.236271  -0.174483  -0.307243  -0.389002   0.074968   2.304914   0.032312   1.835595  -0.001136   0.136882  -0.794349  -2.198566   0.086300   0.335947  -0.368963   0.666660   0.189858  -2.080669   0.013131  -0.618322   0.007711   0.094539  -0.019078   2.773388   1.430125   0.066616   0.116590   1.714573   0.000780   0.000080  -2.274162  -0.228416  -0.149788  -0.220927  -0.000387   0.000428   0.895085   0.018574   0.380539   2.507379  -0.004648  -0.000747  -1.798266   0.139925   0.009679   0.032841  -0.000063   0.000028
 -2.377171   0.926559   3.975530  -3.432658  -0.256140  -0.336262   4.367737   0.330516   0.452935   0.475846  -0.467923  -0.130411  -0.465870   0.025810   0.354859  -0.457954  -0.288946  -0.006192  -0.766192   0.214636   4.939855   0.071555   3.628160  -0.003610   0.277732  -1.005082  -3.683135   0.186047   0.694328  -1.441457   1.331623   0.376218  -4.733373   0.029654  -1.200100   0.013821   0.239115  -0.156223   4.830136   3.015325   0.128435   0.158164   3.628764   0.002375  -0.002577  -4.400537  -0.438855  -0.295385  -0.528194  -0.001013   0.001303   1.756901   0.066359   0.911867   5.206724  -0.012784  -0.003407  -3.461715   0.276527   0.026589   0.055391  -0.000128   0.000019
 -2.377630   0.927025   3.975512  -5.111147  -0.558412  -0.483126   6.393917   0.567828   0.596413   0.842784  -0.594121  -0.245038  -0.616227   0.032572   0.541373  -0.662636  -0.348829   0.699236  -1.128362   0.369087   7.717953   0.107735   5.321567  -0.005345   0.421454  -1.012231  -4.462583   0.286879   1.039580  -2.940994   1.990096   0.536920  -7.740268   0.045557  -1.740327   0.017940   0.388827  -0.311160   6.069935   4.614744   0.176551   0.107823   5.494683   0.004134  -0.006794  -6.381735  -0.632202  -0.437325  -0.805252  -0.001584   0.002151   2.496333   0.131171   1.539349   7.763074  -0.022094  -0.006112  -5.010040   0.405809   0.048058   0.087055  -0.000248  -0.000010
 -2.378228   0.927083   3.975578  -6.675682  -0.927043  -0.615348   8.284069   0.828476   0.667095   1.188332  -0.666830  -0.411225  -0.752839   0.037995   0.723831  -0.850521  -0.372195   1.657316  -1.473719   0.519641  10.534856   0.136570   6.910942  -0.006232   0.560603  -0.945159  -4.722605   0.387464   1.368408  -4.729112   2.612671   0.656783 -10.836176   0.058790  -2.242146   0.020342   0.535501  -0.464893   6.629570   6.199505   0.212216  -0.021080   7.271228   0.005646  -0.011396  -8.230675  -0.809684  -0.575792  -1.062128  -0.002083   0.002888   3.107139   0.206081   2.243262  10.133457  -0.031234  -0.007837  -6.456135   0.527583   0.072640   0.109256  -0.000324  -0.000034
 -2.378940   0.926525   3.975721  -8.129090  -1.337267  -0.740964  10.046656   1.101342   0.668073   1.506581  -0.700006  -0.625063  -0.880074   0.042391   0.897141  -1.022382  -0.373031   2.754950  -1.800952   0.657170  13.316160   0.156723   8.398337  -0.006460   0.692196  -0.851715  -4.633115   0.486980   1.680981  -6.667149   3.199283   0.738114 -13.921759   0.068752  -2.708985   0.021466   0.675554  -0.613355   6.727677   7.760905   0.237351  -0.211667   8.955793   0.006774  -0.015722  -9.956641  -0.972226  -0.710547  -1.301126  -0.002497   0.003466   3.600898   0.285096   3.010576  12.323649  -0.039372  -0.008362  -7.807498   0.642054   0.099408   0.121360  -0.000337  -0.000043
 -2.379735   0.925205   3.975931  -9.479472  -1.771292  -0.865547  11.690409   1.378930   0.606581   1.798741  -0.703440  -0.880317  -0.998846   0.045914   1.059072  -1.179385  -0.361908   3.912311  -2.109401   0.777022  16.012016   0.168493   9.788016  -0.006221   0.815457  -0.752766  -4.324202   0.585689   1.980078  -8.662687   3.750486   0.786661 -16.936120   0.075454  -3.143143   0.021657   0.807479  -0.752622   6.525239   9.293871   0.253335  -0.449707  10.552129   0.007509  -0.019439 -11.567754  -1.120823  -0.841305  -1.522743  -0.002816   0.003872   3.991750   0.363086   3.828113  14.346772  -0.046037  -0.007833  -9.070285   0.749404   0.127638   0.125942  -0.000301  -0.000040
 -2.380515   0.922510   3.975694 -10.058617  -2.169292  -0.929561  12.641619   1.585173   0.421117   1.849489  -0.660631  -1.089016  -1.207019  -0.046599   1.143306  -1.077843  -0.401098   4.556798  -1.892392   0.955433  18.566912   0.171670  11.200035  -0.013395   0.861666  -0.599884  -3.409581   0.805493   2.308908  -9.883984   4.056270   0.863914 -19.995004   0.074264  -3.482753   0.019718   0.910058  -1.061351   5.325902  10.160034   0.036530  -0.722277  11.254076   0.006565  -0.019657 -12.462869  -1.419386  -1.030165  -1.333317  -0.001461   0.001612   3.603658   0.513869   4.562661  15.948519  -0.047298  -0.004962 -10.175793   1.018125  -0.036348   0.147956  -0.000348  -0.000003
